<svg width="32" height="32" viewBox="0 0 32 32" fill="none" xmlns="http://www.w3.org/2000/svg">
  <style>
    .letter {
      fill: #f4f4f4;
    }

    @media (prefers-color-scheme: light) {
      .letter {
        fill: #1a2420;
      }
    }
  </style>
  <path class="letter" d="M13.76 25.24C12.5227 25.24 11.472 25.0053 10.608 24.536C9.75467 24.056 9.104 23.4213 8.656 22.632C8.21867 21.832 8 20.952 8 19.992C8 19.192 8.12267 18.4613 8.368 17.8C8.61333 17.1387 9.008 16.5573 9.552 16.056C10.1067 15.544 10.848 15.1173 11.776 14.776C12.416 14.5413 13.1787 14.3333 14.064 14.152C14.9493 13.9707 15.952 13.8 17.072 13.64C18.192 13.4693 19.424 13.2827 20.768 13.08L19.2 13.944C19.2 12.92 18.9547 12.168 18.464 11.688C17.9733 11.208 17.152 10.968 16 10.968C15.36 10.968 14.6933 11.1227 14 11.432C13.3067 11.7413 12.8213 12.2907 12.544 13.08L8.608 11.832C9.04533 10.4027 9.86667 9.24 11.072 8.344C12.2773 7.448 13.92 7 16 7C17.5253 7 18.88 7.23467 20.064 7.704C21.248 8.17333 22.144 8.984 22.752 10.136C23.0933 10.776 23.296 11.416 23.36 12.056C23.424 12.696 23.456 13.4107 23.456 14.2V24.76H19.648V21.208L20.192 21.944C19.3493 23.1067 18.4373 23.9493 17.456 24.472C16.4853 24.984 15.2533 25.24 13.76 25.24ZM14.688 21.816C15.488 21.816 16.16 21.6773 16.704 21.4C17.2587 21.112 17.696 20.7867 18.016 20.424C18.3467 20.0613 18.5707 19.7573 18.688 19.512C18.912 19.0427 19.04 18.4987 19.072 17.88C19.1147 17.2507 19.136 16.728 19.136 16.312L20.416 16.632C19.1253 16.8453 18.08 17.0267 17.28 17.176C16.48 17.3147 15.8347 17.4427 15.344 17.56C14.8533 17.6773 14.4213 17.8053 14.048 17.944C13.6213 18.1147 13.2747 18.3013 13.008 18.504C12.752 18.696 12.56 18.9093 12.432 19.144C12.3147 19.3787 12.256 19.64 12.256 19.928C12.256 20.3227 12.352 20.664 12.544 20.952C12.7467 21.2293 13.0293 21.4427 13.392 21.592C13.7547 21.7413 14.1867 21.816 14.688 21.816Z"/>
</svg>
